<svg width="22" height="22" viewBox="0 0 22 22" fill="none" xmlns="http://www.w3.org/2000/svg">
<path d="M16.7601 17.8717H4.77893V18.7275C4.77893 19.2001 4.39578 19.5833 3.92314 19.5833H3.06734C2.5947 19.5833 2.21155 19.2001 2.21155 18.7275V11.0253L4.36245 5.28956C4.61297 4.62153 5.2516 4.17896 5.96507 4.17896H15.5739C16.2874 4.17896 16.926 4.62153 17.1766 5.28956L19.3274 11.0253V18.7275C19.3274 19.2001 18.9443 19.5833 18.4717 19.5833H17.6159C17.1432 19.5833 16.7601 19.2001 16.7601 18.7275V17.8717ZM4.03953 11.0253H17.4995L15.5739 5.89055H5.96507L4.03953 11.0253ZM6.06263 15.3043C6.77159 15.3043 7.34632 14.7295 7.34632 14.0206C7.34632 13.3117 6.77159 12.7369 6.06263 12.7369C5.35366 12.7369 4.77893 13.3117 4.77893 14.0206C4.77893 14.7295 5.35366 15.3043 6.06263 15.3043ZM15.4764 15.3043C16.1853 15.3043 16.7601 14.7295 16.7601 14.0206C16.7601 13.3117 16.1853 12.7369 15.4764 12.7369C14.7674 12.7369 14.1927 13.3117 14.1927 14.0206C14.1927 14.7295 14.7674 15.3043 15.4764 15.3043Z" fill="black"/>
</svg>
