<svg width="22" height="21" viewBox="0 0 22 21" fill="none" xmlns="http://www.w3.org/2000/svg">
<path d="M15.0525 13.7582H16.7641V3.48869H8.20613V5.20028H15.0525V13.7582ZM15.0525 15.4698V18.0365C15.0525 18.5095 14.6674 18.893 14.1908 18.893H3.93303C3.45715 18.893 3.07153 18.5125 3.07153 18.0365L3.07376 6.05682C3.07385 5.58377 3.4589 5.20028 3.93539 5.20028H6.49454V2.63289C6.49454 2.16025 6.8777 1.7771 7.35034 1.7771H17.6199C18.0926 1.7771 18.4757 2.16025 18.4757 2.63289V14.614C18.4757 15.0867 18.0926 15.4698 17.6199 15.4698H15.0525ZM6.49454 13.7582V15.4698H8.20613V16.3256H9.91774V15.4698H10.3456C11.5272 15.4698 12.4851 14.5119 12.4851 13.3303C12.4851 12.1487 11.5272 11.1908 10.3456 11.1908H7.77823C7.54192 11.1908 7.35034 10.9993 7.35034 10.7629C7.35034 10.5266 7.54192 10.335 7.77823 10.335H11.6293V8.62344H9.91774V7.76767H8.20613V8.62344H7.77823C6.59663 8.62344 5.63875 9.58133 5.63875 10.7629C5.63875 11.9445 6.59663 12.9024 7.77823 12.9024H10.3456C10.5819 12.9024 10.7735 13.094 10.7735 13.3303C10.7735 13.5667 10.5819 13.7582 10.3456 13.7582H6.49454Z" fill="black"/>
</svg>
