<svg width="22" height="21" viewBox="0 0 22 21" fill="none" xmlns="http://www.w3.org/2000/svg">
<path d="M10.7695 2.16028C15.4959 2.16028 19.3274 5.9918 19.3274 10.7182C19.3274 15.4446 15.4959 19.2762 10.7695 19.2762C6.04307 19.2762 2.21155 15.4446 2.21155 10.7182C2.21155 5.9918 6.04307 2.16028 10.7695 2.16028ZM14.1964 11.4694C13.9008 11.0206 13.6875 10.6965 12.8766 10.825C11.3443 11.0682 11.1745 11.3365 11.1013 11.7773L11.0807 11.9115L11.0599 12.053C10.9763 12.6376 10.9794 12.8587 11.2478 13.1408C12.3306 14.2768 12.9792 15.0956 13.1757 15.5745C13.2716 15.8088 13.5182 16.5163 13.3485 17.216C14.3957 16.8 15.3186 16.1382 16.0457 15.3018C16.14 14.9819 16.2082 14.5835 16.2082 14.1002V14.0106C16.2082 13.2212 16.2082 12.8611 15.6502 12.5423C15.4148 12.4085 15.2391 12.328 15.0983 12.2641C14.784 12.1212 14.576 12.0273 14.2952 11.6167C14.2617 11.5679 14.229 11.5191 14.1964 11.4694ZM10.7695 3.72923C8.78627 3.72923 6.99597 4.55529 5.7239 5.8821C5.87534 5.98727 6.00732 6.13504 6.09796 6.33875C6.27254 6.73047 6.27254 7.13347 6.27254 7.48986C6.27219 7.77105 6.2718 8.03719 6.36209 8.23045C6.48576 8.49431 7.01803 8.60636 7.48794 8.70485C7.65583 8.7402 7.82894 8.77628 7.98643 8.81987C8.41953 8.94017 8.75456 9.32885 9.02315 9.64095C9.13459 9.77095 9.29916 9.96196 9.38166 10.0094C9.4247 9.97848 9.56283 9.82889 9.63121 9.58302C9.68324 9.39577 9.66843 9.22889 9.59184 9.13869C9.11336 8.57399 9.13938 7.48606 9.28726 7.08534C9.52021 6.453 10.2479 6.49966 10.7798 6.53422C10.9781 6.54699 11.1654 6.55926 11.305 6.54174C11.8377 6.47491 12.0015 5.66508 12.1174 5.50644C12.3674 5.16396 13.1321 4.64816 13.6071 4.32933C12.74 3.9436 11.7798 3.72923 10.7695 3.72923Z" fill="black"/>
</svg>
