<svg width="28" height="28" viewBox="0 0 28 28" fill="none" xmlns="http://www.w3.org/2000/svg">
<path d="M25.952 14.1084C25.952 13.2201 25.8723 12.366 25.7242 11.546H13.9258V16.3975H20.6678C20.3717 17.9577 19.4834 19.2787 18.1509 20.167V23.3216H22.2166C24.5854 21.135 25.952 17.9235 25.952 14.1084Z" fill="#4285F4"/>
<path d="M13.9258 26.3509C17.3082 26.3509 20.1439 25.2348 22.2166 23.3216L18.1509 20.167C17.0349 20.9186 15.6113 21.3742 13.9258 21.3742C10.6688 21.3742 7.90138 19.1762 6.91058 16.2152H2.74243V19.4495C4.80373 23.5379 9.02883 26.3509 13.9258 26.3509Z" fill="#34A853"/>
<path d="M6.91054 16.2039C6.66 15.4522 6.51195 14.6551 6.51195 13.8237C6.51195 12.9924 6.66 12.1952 6.91054 11.4435V8.20923H2.74239C1.88826 9.89471 1.39856 11.7966 1.39856 13.8237C1.39856 15.8508 1.88826 17.7527 2.74239 19.4382L5.98808 16.91L6.91054 16.2039Z" fill="#FBBC05"/>
<path d="M13.9258 6.28463C15.7708 6.28463 17.4107 6.92238 18.7204 8.15232L22.3077 4.56498C20.1325 2.53784 17.3082 1.29651 13.9258 1.29651C9.02883 1.29651 4.80373 4.10944 2.74243 8.20927L6.91058 11.4436C7.90138 8.48259 10.6688 6.28463 13.9258 6.28463Z" fill="#EA4335"/>
</svg>
