<svg width="22" height="21" viewBox="0 0 22 21" fill="none" xmlns="http://www.w3.org/2000/svg">
<path d="M17.6159 17.4864C17.6159 17.9591 17.2328 18.3422 16.7601 18.3422H4.77902C4.30638 18.3422 3.92322 17.9591 3.92322 17.4864V9.78427H1.35583L10.1939 1.74965C10.5203 1.45292 11.0189 1.45292 11.3453 1.74965L20.1833 9.78427H17.6159V17.4864ZM15.9044 16.6306V8.20744L10.7696 3.53946L5.63481 8.20744V16.6306H15.9044ZM10.7696 14.919L7.89517 12.0446C7.1432 11.2927 7.1432 10.0734 7.89517 9.32154C8.64714 8.56954 9.86629 8.56954 10.6183 9.32154L10.7696 9.47276L10.9209 9.32154C11.6729 8.56954 12.892 8.56954 13.644 9.32154C14.3959 10.0734 14.3959 11.2927 13.644 12.0446L10.7696 14.919Z" fill="black"/>
</svg>
