<svg width="18" height="17" viewBox="0 0 18 17" fill="none" xmlns="http://www.w3.org/2000/svg">
<path d="M8.52812 1.62998C8.74736 1.2172 9.33881 1.2172 9.55804 1.62998L11.4142 5.12477C11.4985 5.28345 11.6512 5.39442 11.8282 5.42554L15.7255 6.11089C16.1858 6.19184 16.3686 6.75435 16.0438 7.09041L13.2936 9.93566C13.1687 10.0649 13.1104 10.2444 13.1355 10.4223L13.688 14.3407C13.7533 14.8035 13.2748 15.1511 12.8548 14.9461L9.29893 13.2097C9.13748 13.1309 8.94869 13.1309 8.78723 13.2097L5.23139 14.9461C4.8114 15.1511 4.33291 14.8035 4.39817 14.3407L4.9507 10.4223C4.97578 10.2444 4.91744 10.0649 4.79257 9.93566L2.04241 7.09041C1.71758 6.75435 1.90035 6.19184 2.36067 6.11089L6.258 5.42554C6.43496 5.39442 6.58769 5.28345 6.67197 5.12477L8.52812 1.62998Z" fill="#6A6A6A"/>
<mask id="mask0_54888_2985" style="mask-type:alpha" maskUnits="userSpaceOnUse" x="0" y="0" width="10" height="17">
<rect x="0.879883" y="0.6604" width="8.1632" height="16.3264" fill="#D9D9D9"/>
</mask>
<g mask="url(#mask0_54888_2985)">
<path d="M8.52812 1.62998C8.74736 1.2172 9.33881 1.2172 9.55804 1.62998L11.4142 5.12477C11.4985 5.28345 11.6512 5.39442 11.8282 5.42554L15.7255 6.11089C16.1858 6.19184 16.3686 6.75435 16.0438 7.09041L13.2936 9.93566C13.1687 10.0649 13.1104 10.2444 13.1355 10.4223L13.688 14.3407C13.7533 14.8035 13.2748 15.1511 12.8548 14.9461L9.29893 13.2097C9.13748 13.1309 8.94869 13.1309 8.78723 13.2097L5.23139 14.9461C4.8114 15.1511 4.33291 14.8035 4.39817 14.3407L4.9507 10.4223C4.97578 10.2444 4.91744 10.0649 4.79257 9.93566L2.04241 7.09041C1.71758 6.75435 1.90035 6.19184 2.36067 6.11089L6.258 5.42554C6.43496 5.39442 6.58769 5.28345 6.67197 5.12477L8.52812 1.62998Z" fill="#FCD503"/>
</g>
</svg>
